<?xml version="1.0" encoding="UTF-8" standalone="no"?>
<svg
   version="1.1"
   viewBox="0 0 822.80347 784.09479"
   id="svg2"
   width="822.80347"
   height="784.09479"
   xmlns="http://www.w3.org/2000/svg"
   xmlns:svg="http://www.w3.org/2000/svg">
  <defs
     id="defs2" />
  <path
     fill="#f5afcd"
     d="m 251.47018,746.47009 q -45.04,-20.99 -81.45,-51.41 c -15.85,-13.24 -30.1,-27.93 -44.37,-42.82 q -4.26,-4.43 -13.62,-13.31 c -43.520005,-41.27 -77.490005,-96.52 -95.280005,-153.36 -29.7,-94.9 -19.8699998,-200.37 29.22,-287.49 C 110.57018,83.420095 233.34018,10.580095 364.89018,6.2000946 q 16.15,-0.54 32.14,-2.74 14.73,-2.03 19.83,-2.43 c 38.03,-2.95 75.63,0.59 113.18,8.65 q 60.85,13.0600004 113.74,45.7200004 34.16,21.09 59.18,43.82 22.03,20.009995 44.5,48.939995 c 80.39,103.46 98.23,248.63 44.91,368.25 -6.11,13.72 -15.36,29.89 -22.54,45.73 q -12.38,27.29 -29.4,51.96 c -26.45,38.36 -57.5,71.81 -94.94,98.47 -21.24,15.12 -45.3,27.47 -69.99,38.47 q -68.36,30.46 -141.19,32.86 -30.76,1.01 -66.6,-3.22 c -40.01,-4.72 -79.02,-16.85 -116.24,-34.21 z m 547.2,-436.21 q -19.07,-105.62 -94.01,-182.5 -49.83,-51.109995 -115.51,-79.109995 c -31.35,-13.36 -66.37,-25.07 -100.59,-27.21 a 0.24,0.24 0 0 0 -0.09,0.47 c 10.68,3.83 22.48,7.58 32.09,11.44 q 40.25,16.16 73.52,39.2 20.05,13.88 32.99,22.26 13.8,8.949995 16.71,10.979995 c 78.6,55 134.19,138.66 152.54,233.07 q 4.59,23.62 7.24,49.93 0.01,0.03 -0.03,0.03 -0.01,0 -0.03,0.01 -0.06,0.01 -0.05,-0.05 2.16,-40.11 -4.78,-78.52 z m -323.23,-271.929995 c -27.94,-8 -57.14,-13.43 -86.58,-13.3 q -11.04,0.05 -14.84,0.78 -55.32,10.62 -102.15,36.89 -3.68,2.07 0.3,0.66 c 13.77,-4.9 28.35,-10.33 41.97,-14.08 q 79.1,-21.81 160.92,-10.2 1.61,0.23 3.27,0.03 0.59,-0.07 0.04,-0.3 c -0.9,-0.37 -2.2,-0.27 -2.93,-0.48 z M 33.200175,474.57009 q 7.17,24.65 17.73,45.92 1.37,2.77 0.57,-0.22 -3.63,-13.39 -7.22,-27.44 c -10.96,-42.86 -12.99,-90.79 -6.31,-134.5 q 17.57,-114.91 95.850005,-200.09 8.41,-9.14 12.8,-14.34 c 8.47,-10.02 16.79,-20.3 25.77,-29.56 q 13.93,-14.359995 19.45,-19.169995 11.62,-10.13 39.47,-29.97 18.1,-12.88 37.99,-22.75 1,-0.5 1.6,-1.07 a 0.37,0.37 0 0 0 -0.35,-0.63 c -8.36,2.01 -14.97,4.52 -24.19,8.13 q -58.31,22.79 -104.3,62.219995 -20.24,17.35 -40.16,40.28 -6.660005,7.65 -12.570005,15.56 c -38.01,50.84 -61.73,108.18 -68.47,171.94 q -7.23,68.36 12.34,135.69 z M 477.42018,58.760095 q -76.82,-11.68 -148.87,6.4 -79.47,19.94 -141.28,69.729995 -16.56,13.34 -29.67,26.5 -5.03,5.05 -9.21,11.14 c -37.77,55.07 -59.510005,117.51 -61.870005,184.6 q -3.53,100.21 45.650005,185.11 c 13.42,23.17 30.41,46.84 49.6,66.58 q 16.65,17.13 30.33,28.46 90.97,75.33 208.94,83.68 7.12,0.5 14.03,0.37 10.12,-0.19 14.02,-0.96 77.62,-15.38 140.31,-60.38 14.93,-10.72 33.28,-26.87 c 5.18,-4.56 10.05,-10.18 15.21,-15.24 24.78,-24.34 44.26,-51.3 60.15,-83.04 21.25,-42.47 35.1,-88.97 37.88,-136.71 q 5.94,-101.87 -43.01,-190.15 c -12.2,-21.99 -25.18,-40.94 -41.37,-58.97 q -19.23,-21.41 -31.07,-32.3 -15.1,-13.89 -36.2,-24.179995 -52.21,-25.47 -106.85,-33.77 z m 227.28,131.699995 c 46.74,79.16 62.68,175.65 42.12,265.46 q -24.64,107.68 -105.13,184.84 -23.8,22.81 -49.61,40.3 c -12.79,8.66 -27.46,16.59 -41.37,24.36 a 0.29,0.29 0 0 0 0.21,0.54 q 9.97,-2.28 19.1,-5.92 c 35.21,-14.05 69.22,-31.16 99.58,-55.65 q 22.45,-18.12 42.25,-39.1 c 13.95,-14.78 26.36,-31.61 37.63,-48.5 q 6.71,-10.06 11.55,-22.69 21,-54.77 22.53,-112.47 3.4,-127.92 -74.47,-227.78 -2.91,-3.74 -6.02,-7.26 a 0.11,0.1 14.9 0 0 -0.18,0.1 q 0.73,1.94 1.81,3.77 z m -432.64,521.32 c 19.75,5.89 39.72,10.85 60.03,13 q 4.13,0.43 0.28,-1.11 c -9.32,-3.74 -20.53,-6.81 -29.09,-10.24 -112.72,-45.19 -196.88,-139.63 -225.850005,-257.95 -13.24,-54.11 -13.54,-111.2 -1.26,-164.94 q 1.91,-8.4 -1.18,-0.36 -25.69,66.87 -20.7,142 c 4.23,63.71 27.21,125.81 63.330005,178 q 8.26,11.92 11.66,16.26 9.95,12.65 23.6,23.35 54.42,42.66 119.18,61.99 z m 143.74,32.56 c -42.51,4.57 -89.09,1.2 -132.03,-9.6 -8.93,-2.25 -19.63,-5.96 -29.62,-8.66 a 0.35,0.35 0 0 0 -0.25,0.64 c 53.33,27.6 115.85,39.42 175.4,38.11 q 9.96,-0.22 19.97,-1.07 116.08,-9.78 206.85,-83.83 4.64,-3.78 7.56,-6.89 0.8,-0.85 -0.29,-0.45 -1.52,0.57 -2.89,1.52 c -31.17,21.73 -63.2,36.66 -101.48,48.9 q -45.81,14.66 -93.73,16.93 c -17.59,0.84 -30.91,2.41 -49.49,4.4 z"
     id="path1" />
  <path
     fill="#f5afcd"
     d="m 535.33018,437.23009 q -0.01,-0.33 -0.34,-0.33 h -86.68 q -0.52,0 -0.52,-0.51 v -49 q 0,-0.49 0.5,-0.49 h 143.26 q 0.37,0 0.39,0.37 0.68,14.85 1.16,29.59 1.1,33.63 -8.69,65.43 c -15.69,50.95 -56.12,84.95 -107.84,95.72 q -49.82,10.38 -100.27,0.88 c -100.19,-18.86 -155,-110.61 -145.32,-208.51 q 7.98,-80.68 69.91,-129.43 c 38.84,-30.58 89.58,-42.84 138.35,-39.81 49.4,3.07 91.62,24.47 122.79,63.08 q 0.25,0.31 -0.07,0.55 l -42.29,31.96 a 0.51,0.52 51.1 0 1 -0.69,-0.07 c -19.28,-21.74 -43.12,-36.22 -72.19,-40.37 q -24.42,-3.48 -48.73,0.7 c -54.78,9.42 -95.24,51.29 -104.16,105.66 -2.99,18.28 -2.99,36.25 -0.63,54.41 7.36,56.55 48.79,101.74 105.82,111.01 33.45,5.44 75.89,2.13 104.06,-19.04 q 34.34,-25.81 32.18,-71.8 z"
     id="path2" />
</svg>
