<?xml version="1.0" encoding="UTF-8" standalone="no"?>
<!-- Created with Inkscape (http://www.inkscape.org/) -->

<svg
   version="1.1"
   id="svg1"
   width="122.18537"
   height="122.36548"
   viewBox="0 0 122.18537 122.36548"
   xmlns="http://www.w3.org/2000/svg"
   xmlns:svg="http://www.w3.org/2000/svg">
  <defs
     id="defs1" />
  <g
     id="g1"
     transform="translate(-144.3909,-2.8034472)">
    <path
       style="fill:#000000"
       d="m 190.85487,123.29948 c -2.41345,-1.05457 -7.96345,-2.2911 -12.33334,-2.74784 l -7.94524,-0.83044 0.0973,-6.14339 c 0.0535,-3.37887 0.54596,-9.29339 1.09429,-13.14339 0.90157,-6.330288 0.75548,-7.000007 -1.52699,-7.000007 -2.38218,0 -2.47543,-0.879994 -1.66022,-15.666666 0.47504,-8.616666 1.09956,-16.416666 1.3878,-17.333332 0.93888,-2.985781 -0.52163,-1.773757 -5.12073,4.249492 l -4.51732,5.916158 -8.30155,-6.717094 c -5.11641,-4.139887 -8.03054,-7.423325 -7.59521,-8.557778 0.38849,-1.012377 7.17703,-11.218707 15.08564,-22.680735 14.06966,-20.391273 14.57252,-20.937351 23.35151,-25.35838 8.5635,-4.3125093 9.62663,-4.5165513 23.33882,-4.4793186 13.68434,0.037157 14.74602,0.2465486 22.35565,4.4091352 7.65474,4.1872574 8.61718,5.3414314 23,27.5820554 8.25603,12.766561 15.01097,23.65521 15.01097,24.196997 0,0.541787 -3.69469,3.974579 -8.21042,7.628426 l -8.21042,6.643359 -4.51733,-5.916159 c -4.59974,-6.024097 -6.05821,-7.23412 -5.12203,-4.249492 0.28753,0.916667 0.90883,8.116667 1.38067,16 0.80578,13.46294 0.70505,14.333332 -1.65892,14.333332 -2.27386,0 -2.42057,0.675721 -1.51985,7.000007 0.54832,3.85 1.04076,9.76452 1.09429,13.14339 l 0.0973,6.14339 -7.89432,0.82512 c -4.34188,0.45381 -10.31036,1.79183 -13.2633,2.97336 -5.02168,2.00928 -5.63225,1.99272 -9.43901,-0.25599 -3.86086,-2.28066 -4.26905,-2.28666 -7.94242,-0.11675 -4.51704,2.66827 -4.75055,2.67166 -10.5157,0.15254 z m 18.5948,-6.1301 c 3.76672,2.38492 4.70248,2.47125 9.64894,0.89015 3.01272,-0.963 7.76072,-2.13099 10.5511,-2.59554 l 5.07343,-0.84463 -0.91237,-9.59247 c -0.50181,-5.275863 -1.17026,-10.042477 -1.48545,-10.592477 -0.31519,-0.55 -12.49724,-1 -27.0712,-1 -30.07761,0 -27.17959,-1.30415 -28.70315,12.916837 l -0.88387,8.25017 5.12126,0.85902 c 2.81669,0.47246 7.52126,1.63495 10.4546,2.5833 4.77551,1.54393 5.78841,1.45026 9.6844,-0.89556 4.32756,-2.60569 4.3736,-2.60558 8.52231,0.0212 z m 3.79328,-48.365799 v -19.2975 l -10.56549,-6.09417 C 186.67756,34.183175 181.27555,27.305439 181.25039,16.131386 l -0.007,-3.30303 -3.18061,3.30303 c -5.46605,5.676425 -27.61974,38.674696 -26.8264,39.958342 0.41487,0.671288 2.47535,2.446008 4.57884,3.943821 l 3.82452,2.723297 8.2776,-10.994549 8.2776,-10.994548 -0.85097,16.666666 c -0.46803,9.166666 -1.20126,19.816666 -1.6294,23.666665 l -0.77844,7 h 20.15363 20.15363 z m -10.0718,12.514656 c -1.37402,-2.223224 1.71628,-4.772678 3.55563,-2.933333 1.53856,1.538566 0.57563,4.382843 -1.48383,4.382843 -0.64677,0 -1.57908,-0.652279 -2.0718,-1.44951 z m 0,-10.666666 c -1.37402,-2.223225 1.71628,-4.772679 3.55563,-2.933333 1.53856,1.538566 0.57563,4.382843 -1.48383,4.382843 -0.64677,0 -1.57908,-0.65228 -2.0718,-1.44951 z m 0,-10.666666 c -1.37402,-2.223225 1.71628,-4.772679 3.55563,-2.933333 1.53856,1.538566 0.57563,4.382843 -1.48383,4.382843 -0.64677,0 -1.57908,-0.65228 -2.0718,-1.44951 z m 33.63489,21.782842 c -0.42926,-3.483333 -1.17354,-13.533333 -1.65396,-22.333332 l -0.8735,-16 8.28401,10.994549 8.28402,10.994548 3.82452,-2.723296 c 2.10348,-1.497814 4.15605,-3.259727 4.56125,-3.915364 0.78425,-1.268937 -22.995,-38.877663 -27.3862,-43.313399 -2.5892,-2.615464 -2.60327,-2.611873 -2.61066,0.666667 -0.0192,8.509553 -4.35998,16.333488 -12.05052,21.720152 -2.67241,1.871828 -2.70893,2.181428 -0.71273,6.041656 1.64303,3.177275 2.10402,8.465205 2.10402,24.13494 V 88.10108 h 9.5051 9.50511 z M 206.42281,37.101082 c -1.80909,-3.433587 -14.79335,-26.812958 -15.19762,-27.3647174 -0.14698,-0.200595 -1.32078,0.03957 -2.60845,0.5336944 -1.92373,0.738203 -2.22872,2.069229 -1.71035,7.46404 0.78439,8.163341 3.93591,12.485407 13.14557,18.028136 3.95505,2.3803 7.3621,4.3303 7.57124,4.333333 0.20913,0.003 -0.33104,-1.344486 -1.20039,-2.994486 z m 10.69376,-5.764927 c 6.41899,-5.401225 9.33182,-20.631047 4.12638,-21.5749184 -2.98471,-0.541201 -12.48834,17.5459424 -11.43158,21.7563954 1.03176,4.110891 2.23967,4.080884 7.3052,-0.181477 z m -7.54028,-15.099601 c 2.01666,-3.590666 3.66666,-6.8900554 3.66666,-7.3319774 0,-0.441922 -3.6,-0.803494 -8,-0.803494 -4.4,0 -8,0.361572 -8,0.803494 0,1.2783054 7.26219,13.8604614 8,13.8604614 0.36667,0 2.31667,-2.937817 4.33334,-6.528484 z"
       id="path1" />
  </g>
</svg>
