<svg width="65" height="52" viewBox="0 0 65 52" fill="none" xmlns="http://www.w3.org/2000/svg">
<g clip-path="url(#clip0_358_55)">
<path d="M42.25 17.875C42.25 27.7469 32.7945 35.75 21.125 35.75C17.2453 35.75 13.6195 34.8664 10.4914 33.3227C9.72969 33.7289 8.86641 34.125 7.93203 34.4805C6.07344 35.1813 3.83906 35.75 1.625 35.75C0.924219 35.75 0.294531 35.293 0.08125 34.6227C-0.132031 33.9523 0.101562 33.2211 0.670312 32.8047L0.690625 32.7844C0.710938 32.7641 0.751563 32.7438 0.802344 32.7031C0.903906 32.6219 1.05625 32.5 1.23906 32.3273C1.60469 31.9922 2.10234 31.5047 2.58984 30.875C3.14844 30.1641 3.67656 29.3109 4.03203 28.3664C1.49297 25.4211 0 21.7953 0 17.875C0 8.00313 9.45547 0 21.125 0C32.7945 0 42.25 8.00313 42.25 17.875ZM23.5117 38.8984C35.4352 37.8727 45.5 29.2805 45.5 17.875C45.5 17.3469 45.4797 16.8188 45.4391 16.3008C56.3773 16.9711 65 24.7 65 34.125C65 38.0453 63.507 41.6711 60.9781 44.6266C61.3336 45.5812 61.8617 46.4242 62.4203 47.1352C62.9078 47.7648 63.4055 48.2523 63.7711 48.5875C63.9539 48.75 64.1063 48.882 64.2078 48.9633C64.2586 49.0039 64.2992 49.0344 64.3195 49.0445L64.3398 49.0648C64.9086 49.4813 65.1422 50.2125 64.9289 50.8828C64.7156 51.5531 64.0859 52.0102 63.3852 52.0102C61.1711 52.0102 58.9367 51.4414 57.0781 50.7406C56.1437 50.3852 55.2703 49.9891 54.5187 49.5828C51.3805 51.1164 47.7547 52 43.875 52C34.1656 52 25.9797 46.4547 23.5117 38.8984ZM23.1562 7.3125C23.1562 6.19531 22.2422 5.28125 21.125 5.28125C20.0078 5.28125 19.0938 6.19531 19.0938 7.3125V8.73438C18.3219 8.90703 17.55 9.18125 16.8391 9.59766C15.4273 10.4406 14.2086 11.9133 14.2188 14.0562C14.2289 16.118 15.4375 17.418 16.7273 18.1898C17.8445 18.8602 19.2359 19.2867 20.343 19.6117L20.5156 19.6625C21.7953 20.0484 22.7297 20.3531 23.3594 20.7492C23.8773 21.0742 23.9484 21.2977 23.9586 21.582C23.9688 22.0898 23.7758 22.3945 23.3594 22.6484C22.8516 22.9633 22.0492 23.1562 21.1859 23.1258C20.0586 23.0852 19.0023 22.7297 17.6211 22.2625C17.3875 22.1812 17.1438 22.1 16.8898 22.0188C15.8234 21.6633 14.6758 22.2422 14.3203 23.2984C13.9648 24.3547 14.5438 25.5125 15.6 25.868C15.793 25.9289 16.0062 26 16.2195 26.0812C17.0625 26.3758 18.0375 26.7109 19.0836 26.9344V28.4375C19.0836 29.5547 19.9977 30.4688 21.1148 30.4688C22.232 30.4688 23.1461 29.5547 23.1461 28.4375V27.0359C23.9586 26.8633 24.7711 26.5789 25.5023 26.1219C26.9547 25.218 28.0516 23.6742 28.0211 21.5516C27.9906 19.4898 26.8328 18.1594 25.5227 17.3266C24.3547 16.5953 22.8922 16.1484 21.7547 15.8031L21.6836 15.7828C20.3836 15.3867 19.4594 15.1023 18.8094 14.7164C18.2812 14.4016 18.2711 14.2188 18.2711 14.0359C18.2711 13.6602 18.4133 13.3758 18.9008 13.0914C19.4492 12.7664 20.282 12.5734 21.0844 12.5836C22.0594 12.5938 23.1359 12.807 24.2531 13.1117C25.3398 13.3961 26.4469 12.7563 26.7414 11.6695C27.0359 10.5828 26.3859 9.47578 25.2992 9.18125C24.6391 9.00859 23.9078 8.83594 23.1562 8.70391V7.3125Z" fill="#FCDCFF"/>
</g>
<defs>
<clipPath id="clip0_358_55">
<rect width="65" height="52" fill="white"/>
</clipPath>
</defs>
</svg>
