<svg width="86" height="84" viewBox="0 0 86 84" fill="none" xmlns="http://www.w3.org/2000/svg">
<g filter="url(#filter0_d_3_10)">
<path d="M46.7196 75.0372C46.7067 75.0464 46.6936 75.0543 46.6802 75.061C46.668 75.0671 46.6542 75.0701 46.639 75.0701C44.608 75.1 42.577 75.0939 40.5461 75.0518C40.4609 75.05 40.4426 75.0208 40.361 75.0189C39.0152 74.9878 37.8352 74.8796 36.8209 74.6943C34.8657 74.3365 32.8652 73.7766 30.8196 73.0147C30.2963 72.8196 29.7324 72.5868 29.1279 72.3161C27.5909 71.6279 26.395 71.0321 25.5401 70.5285C23.0121 69.0409 20.9906 67.7663 18.9416 65.8562C17.0047 64.0507 15.2192 62.2476 13.5851 60.4469C12.8405 59.6267 12.1498 58.727 11.4784 57.7212C11.0076 57.0153 10.5075 56.2811 10.0853 55.5899C8.96234 53.749 8.06074 52.0221 7.38049 50.4091C6.6343 48.6402 5.98031 46.6484 5.41853 44.4339C5.2671 43.8383 5.14344 43.2418 5.04757 42.6445C4.84851 41.4071 4.72394 40.3245 4.67387 39.3967C4.5725 37.5083 4.65402 35.4857 4.91842 33.3291C5.06986 32.0929 5.25549 31.0477 5.47532 30.1937C6.39432 26.6266 7.77832 23.2803 9.62731 20.1551C12.5034 15.2926 16.8477 11.1679 21.7142 8.29959C22.1935 8.01675 22.7364 7.7394 23.3427 7.46753C24.7157 6.85217 26.0869 6.23407 27.5039 5.71106C29.181 5.09296 30.598 4.58092 32.2769 4.23713C33.8328 3.91832 35.3994 3.66352 36.9766 3.47273C39.1596 3.20878 41.3497 3.03049 43.5467 2.93783C45.6931 2.84701 47.8602 2.93326 50.0481 3.19659C51.935 3.42427 53.7733 3.86864 55.5951 4.30936C57.6477 4.80677 59.6189 5.55471 61.5039 6.50746C64.2407 7.89088 66.7248 9.59431 69.0678 11.5611C70.9876 13.1722 72.6766 15.0457 74.2438 16.9951C75.233 18.2258 76.1923 19.7528 77.1217 21.576C77.9131 23.1285 78.6327 24.874 79.2806 26.8125C80.2039 29.5766 80.6481 32.4842 80.7709 35.4659C80.9888 40.7646 80.1737 45.767 78.1183 50.5372C76.9831 53.1705 75.9047 55.3851 74.8831 57.1808C73.7351 59.1979 72.5313 60.9464 71.2716 62.4265C70.5309 63.2969 69.4998 64.3622 68.1784 65.6221C66.0094 67.6916 63.4585 69.5112 60.5256 71.0808C57.5864 72.6544 54.517 73.8696 51.2379 74.5169C50.9204 74.5791 50.2924 74.6693 49.3538 74.7876C49.3508 74.7882 49.174 74.8153 48.8235 74.869C48.6501 74.8958 48.4751 74.9129 48.2987 74.9202C48.1051 74.9281 47.9301 74.9418 47.7738 74.9613C47.4514 75.0009 47.1272 75.018 46.8011 75.0125C46.7712 75.0119 46.744 75.0201 46.7196 75.0372ZM53.1761 5.29412C53.0497 5.31972 52.9297 5.31606 52.8161 5.28314C52.6689 5.23986 52.5612 5.21792 52.4928 5.21731C52.3383 5.21609 52.1838 5.21457 52.0293 5.21274C51.9989 5.21212 51.9692 5.22074 51.9441 5.23743C51.8422 5.30387 51.8076 5.40049 51.8406 5.52728C51.8486 5.55958 51.8693 5.57604 51.9029 5.57665L52.0605 5.57848C52.0898 5.57848 52.1035 5.59311 52.1017 5.62237C52.0962 5.69796 52.1288 5.74763 52.1997 5.77141C54.9777 6.68759 57.6129 8.06735 60.0411 9.66197C61.15 10.3904 62.2562 11.1216 63.3596 11.8555C67.1104 14.3499 70.1981 17.5291 72.7481 21.2267C74.4545 23.7 76.1325 26.3608 77.1135 29.2163C77.4634 30.2361 77.7345 31.1063 77.9268 31.8268C78.2059 32.8716 78.3561 33.5701 78.3775 33.9225C78.4245 34.6796 78.5228 35.4296 78.6724 36.1727C78.7411 36.5137 78.8648 36.725 79.2449 36.66C79.2718 36.6552 79.291 36.6405 79.3026 36.6161C79.3575 36.5 79.3988 36.4177 79.4006 36.2852C79.411 35.5518 79.4058 34.8185 79.385 34.0852C79.3814 33.9526 79.3072 33.8649 79.3117 33.7177C79.3227 33.3601 79.2156 32.9578 79.1853 32.6808C79.0229 31.2008 78.7005 29.7573 78.2181 28.3504C77.5174 26.3077 77.0145 24.7341 76.1874 23.0792C75.5506 21.8064 74.827 20.4812 74.0166 19.1036C73.7327 18.6217 73.3901 18.1828 73.0549 17.733C72.5072 16.9969 71.8862 16.3011 71.289 15.5943C70.8957 15.128 70.5602 14.7497 70.2823 14.4596C67.6505 11.7104 64.6208 9.50867 61.1934 7.8543C60.7733 7.65193 60.2139 7.4081 59.5154 7.12282C58.3823 6.66107 57.2493 6.16915 56.1062 5.75312C55.523 5.5416 55.0724 5.38068 54.7543 5.27034C54.6217 5.22463 54.4764 5.20482 54.3183 5.21091C54.2871 5.21213 54.2599 5.20268 54.2367 5.18257L54.103 5.06553C54.0816 5.04663 54.0566 5.03688 54.0279 5.03627L53.5892 5.02621C53.5562 5.0256 53.5275 5.01463 53.5031 4.99329C53.4286 4.9299 53.3406 4.91466 53.2393 4.94758C53.2191 4.95367 53.209 4.96769 53.209 4.98964L53.21 5.25206C53.2106 5.27522 53.1993 5.28924 53.1761 5.29412ZM72.291 45.019C72.5224 44.1681 72.672 43.5552 72.7398 43.1803C73.1947 40.6743 73.3327 38.1538 73.1538 35.6186C73.108 34.9694 73.0109 34.2407 72.9313 33.5522C72.869 33.0188 72.7841 32.5071 72.6766 32.017C72.0199 29.0151 71.3989 26.6561 70.2237 23.9944C69.6805 22.7646 68.9313 21.4489 68.2471 20.4148C67.3922 19.1225 66.3798 17.814 65.2098 16.4894C64.6877 15.8982 64.2777 15.4468 63.9797 15.1353C62.0535 13.1219 59.7691 11.6543 57.2044 10.5553C56.711 10.3438 56.1459 10.1128 55.509 9.86222C51.1839 8.15969 46.6774 7.43096 41.9896 7.676C41.0669 7.72477 39.8304 7.83479 38.28 8.00608C36.9751 8.15055 35.7523 8.35171 34.6116 8.60956C34.067 8.73208 33.4814 8.90123 32.8548 9.11702C29.0537 10.4255 25.5721 12.3355 22.3471 14.8902C20.6132 16.2636 18.9636 17.8921 17.7335 19.7354C15.5205 23.0508 13.8993 26.6067 13.1125 30.4708C12.7516 32.2428 12.4878 33.5805 12.4182 35.2483C12.3633 36.5485 12.3895 37.845 12.497 39.1379C12.5434 39.6993 12.6219 40.3031 12.7324 40.9493C13.023 42.6548 13.3919 44.3436 13.8388 46.0157C14.7621 49.4732 16.2481 52.6566 18.2968 55.5661C19.2494 56.9193 20.2184 58.2122 21.345 59.4091C22.1895 60.307 23.1888 61.1784 24.1625 62.0031C25.7037 63.3094 27.3631 64.4444 29.1407 65.4082C30.7228 66.2664 31.8473 66.8337 32.5141 67.1098C35.4458 68.3228 38.4803 69.143 41.6177 69.5703C43.3727 69.8099 45.1515 69.809 46.8661 69.5063C48.654 69.1899 50.4704 68.6831 52.3151 67.9857C52.734 67.8272 53.2011 67.6206 53.7165 67.3658C56.548 65.9644 59.1508 64.2619 61.5249 62.2582C62.0379 61.8261 62.4992 61.4262 62.9089 61.0586C66.254 58.0626 68.7848 54.4734 70.5012 50.2912C71.2071 48.571 71.8037 46.8136 72.291 45.019ZM25.9138 8.09203V7.96768C25.9138 7.9432 25.9071 7.91917 25.8944 7.89821C25.8818 7.87725 25.8636 7.86017 25.8419 7.84884C25.8203 7.83751 25.796 7.83237 25.7716 7.83398C25.7473 7.83559 25.7239 7.84388 25.704 7.85796C25.552 7.96463 25.4021 8.04479 25.2543 8.09843C24.9551 8.20816 24.804 8.26363 24.8009 8.26485C24.3338 8.48338 23.8841 8.69642 23.4297 8.97255C22.653 9.44436 21.7939 9.86679 21.0996 10.4547C20.8175 10.6937 20.5879 10.8805 20.4108 11.0152C19.5919 11.6394 18.7899 12.2849 18.0046 12.9518C15.7404 14.8756 13.7308 17.0313 11.9758 19.419C9.282 23.0837 7.50873 27.4205 6.67796 31.9127C6.46851 33.0453 6.34761 34.1416 6.31525 35.2016C6.31341 35.2693 6.27861 35.3132 6.27586 35.3854C6.24166 36.3681 6.23556 37.351 6.25754 38.3342C6.25815 38.3519 6.26395 38.3677 6.27494 38.3818C6.29082 38.4013 6.29937 38.4235 6.30059 38.4485C6.43554 41.0983 6.82146 43.6277 7.45835 46.0367C7.49804 46.1885 7.60734 46.2659 7.78626 46.269C7.81557 46.2696 7.83938 46.2586 7.8577 46.236L8.29553 45.6865C8.30277 45.6775 8.30812 45.6671 8.31127 45.656C8.31442 45.6448 8.31529 45.6331 8.31384 45.6216C8.03173 43.3369 7.94136 41.1593 8.04272 39.0886C8.1105 37.7036 8.30926 36.2702 8.63901 34.7884C8.92661 33.4973 9.36718 31.5662 9.7757 30.3099C10.6318 27.6765 11.7425 25.159 13.1079 22.7573C13.4047 22.2355 13.7237 21.7159 14.0651 21.1984C14.7227 20.2011 15.3193 19.3888 15.8548 18.7616C16.8459 17.6016 17.8376 16.4428 18.8298 15.2852C21.0672 12.6763 23.6428 10.5044 26.5568 8.76957C26.6036 8.74173 26.6382 8.69735 26.6537 8.6453C26.6691 8.59325 26.6643 8.53737 26.6401 8.48886C26.5021 8.20846 26.2786 8.09234 25.9697 8.14049C25.9324 8.14598 25.9138 8.12983 25.9138 8.09203ZM72.5823 24.1398L72.4925 24.1407C72.4638 24.1413 72.4492 24.1273 72.4485 24.0987C72.4467 24.0194 72.4165 23.9594 72.3579 23.9185C72.3487 23.9131 72.2959 23.8838 72.1994 23.8308C72.0889 23.7704 71.9671 23.754 71.8339 23.7814C71.7845 23.7918 71.7689 23.8204 71.7872 23.8673L71.9063 24.1727C71.9197 24.2069 71.9445 24.2258 71.9805 24.2294C72.0709 24.2392 72.1032 24.2901 72.0776 24.3821C72.069 24.4132 72.0709 24.4437 72.0831 24.4736C72.3624 25.1529 72.553 25.8926 72.8021 26.54C73.4842 28.3084 73.9727 30.1303 74.2676 32.006C74.3378 32.454 74.4041 32.9027 74.4664 33.3519C74.5482 33.9432 74.5958 34.5369 74.6093 35.1331C74.6093 35.1386 74.6184 35.1663 74.6367 35.2163C74.6422 35.2309 74.6456 35.2492 74.6468 35.2711C74.7366 37.1163 74.7097 38.8917 74.5662 40.5972C74.4319 42.1949 74.2847 43.4055 74.1247 44.229C73.4805 47.5335 72.3914 50.6036 70.8575 53.4393C70.1596 54.7285 69.3233 56.0659 68.3488 57.4515C67.9934 57.9568 67.6191 58.4378 67.2258 58.8943C65.3524 61.0717 63.2866 63.0531 61.0285 64.8385C60.5256 65.2363 59.9358 65.559 59.4741 65.9367C59.0189 66.3097 58.5197 66.6462 58.2504 67.1829C58.236 67.2114 58.2324 67.244 58.2401 67.2749C58.2479 67.3058 58.2665 67.3329 58.2926 67.3512L58.5728 67.5459C58.6046 67.5679 58.6385 67.5731 58.6745 67.5615C58.8907 67.4926 59.1029 67.413 59.3111 67.3228C62.3612 66.0049 65.1051 64.2326 67.5427 62.0059C68.6611 60.9836 70.0973 59.6542 71.0939 58.5423C72.113 57.4055 72.7325 56.6676 72.9523 56.3287C73.588 55.3457 74.2887 54.3473 74.7805 53.3378C75.7313 51.3866 76.3688 49.3732 76.9358 47.2839C77.4347 45.4467 77.6734 43.4921 77.652 41.4202C77.6264 38.9734 77.5101 36.7058 76.9807 34.4702C76.6207 32.9496 76.2644 31.387 75.7258 29.9295C74.9741 27.8948 74.0881 25.9188 73.0677 24.0018C73.0518 23.9725 73.0271 23.9579 72.9935 23.9579L72.673 23.956C72.6424 23.9554 72.6272 23.9707 72.6272 24.0018L72.6281 24.0923C72.6281 24.1234 72.6128 24.1392 72.5823 24.1398ZM32.1651 68.9531C32.2366 68.9257 32.2903 68.937 32.3263 68.9869C32.3483 69.0168 32.3782 69.0318 32.4161 69.0318H32.6277C32.6435 69.0318 32.6587 69.0257 32.6701 69.0148C32.6816 69.0039 32.6884 68.989 32.6891 68.9732C32.6976 68.7885 32.6442 68.6493 32.5288 68.5554C32.4512 68.4932 32.3205 68.4231 32.1367 68.3451C30.2224 67.5386 28.363 66.5145 26.7143 65.4969C24.6192 64.2034 22.6707 62.6337 20.8687 60.788C20.5292 60.4399 19.8117 59.6276 18.7163 58.3512C18.2711 57.8325 17.8886 57.3579 17.5686 56.9276C15.341 53.9267 13.412 50.6249 12.4292 46.995C11.8418 44.8255 11.4146 42.8072 11.1478 40.9401C11.0684 40.3872 11.0284 39.6884 11.0278 38.8435C11.0272 38.8203 11.0205 38.7993 11.0076 38.7804C10.9942 38.7603 10.9872 38.7335 10.9866 38.7C10.9707 37.6814 10.9872 36.7515 11.036 35.9103C11.0855 35.0645 11.1331 34.6786 10.7686 34.0505C10.7545 34.0261 10.7332 34.0139 10.7045 34.0139L10.3152 34.0148C10.3045 34.0148 10.294 34.0171 10.2844 34.0218C10.2748 34.0264 10.2664 34.0332 10.2599 34.0416C10.2533 34.05 10.2488 34.0598 10.2467 34.0702C10.2445 34.0806 10.2447 34.0914 10.2474 34.1017C10.2755 34.2108 10.2441 34.2742 10.1531 34.2919C10.1238 34.2974 10.1048 34.3141 10.0963 34.3422C9.71891 35.5918 9.49817 36.8691 9.43405 38.1742C9.42855 38.2812 9.38734 38.3671 9.38276 38.4805C9.32719 39.8514 9.32933 41.2223 9.38917 42.5933C9.39037 42.6222 9.39788 42.6503 9.41115 42.6756C9.42336 42.6981 9.43039 42.7219 9.43222 42.7469C9.55312 44.2583 9.85722 45.7569 10.1448 47.2437C10.4224 48.681 10.8098 49.9812 11.2751 51.3701C11.9639 53.4293 12.8927 55.2708 13.9973 57.1104C15.5938 59.7712 17.7362 62.2857 20.2514 64.1263C23.0292 66.1579 26.0457 67.755 29.301 68.9175C30.1473 69.2198 30.7934 69.4228 31.2391 69.5264C31.4815 69.5831 31.8125 69.5984 32.232 69.5721C32.2503 69.5711 32.2684 69.5767 32.283 69.5879C32.2976 69.5992 32.3078 69.6153 32.3117 69.6334C32.3306 69.7254 32.4048 69.7721 32.5343 69.7733C32.5756 69.7736 32.6161 69.7616 32.6505 69.7386C32.6849 69.7157 32.7115 69.683 32.7271 69.6447C32.7426 69.6065 32.7462 69.5644 32.7374 69.5241C32.7287 69.4838 32.708 69.447 32.6781 69.4185L32.2998 69.0601C32.2754 69.0369 32.2464 69.0244 32.2128 69.0226C32.1926 69.022 32.1743 69.0156 32.1578 69.0034C32.1297 68.9821 32.1322 68.9653 32.1651 68.9531ZM62.581 67.5871L62.6195 67.5615C62.6243 67.5579 62.6281 67.5528 62.6305 67.5468C62.6769 67.4048 62.6439 67.2991 62.5316 67.2296C62.5041 67.2119 62.4745 67.2061 62.4427 67.2122C61.8693 67.3128 61.3124 67.6474 60.9277 67.802C58.7991 68.6553 57.4331 69.1826 56.8298 69.3838C55.2806 69.9013 53.9024 70.2902 52.6952 70.5505C49.3007 71.2826 45.7703 71.7166 42.1041 71.8525C40.8914 71.8973 39.8692 71.8516 38.7142 71.7154C38.2959 71.666 37.3711 71.5663 35.9398 71.4164C35.3432 71.3542 34.738 71.2704 34.1244 71.1649C33.3421 71.0314 32.5593 70.9007 31.7759 70.7727C31.3979 70.7111 31.1518 70.8544 31.0376 71.2024C30.9946 71.3332 31.1356 71.5316 31.2712 71.6011C32.8439 72.403 34.4065 72.7715 36.3336 73.1207C37.6025 73.3512 38.8772 73.5395 40.1577 73.6858C42.4647 73.9497 44.7698 73.9406 47.0731 73.6584C48.4257 73.492 49.7226 73.2609 50.9641 72.9653C54.002 72.2417 56.9385 71.1918 59.7737 69.8154C60.2133 69.602 60.6621 69.3688 61.1201 69.1159C61.7686 68.7568 62.2024 68.4966 62.4217 68.335C62.6323 68.179 62.6995 67.9589 62.6232 67.6749C62.6219 67.6706 62.6195 67.6675 62.6158 67.6657L62.582 67.6447C62.552 67.6264 62.5517 67.6072 62.581 67.5871Z" fill="white"/>
<path d="M38.1179 22.3175C39.5614 21.8884 41.0315 21.5784 42.5282 21.3876C44.8849 21.0868 47.2453 21.4818 49.5306 22.2197C52.2574 23.1002 54.7094 24.7881 56.6988 26.8947C56.7837 26.985 56.8478 27.0621 56.8912 27.1261C56.8996 27.1387 56.9031 27.154 56.9009 27.169C56.8987 27.1841 56.891 27.1978 56.8792 27.2074C55.9847 27.9475 55.0788 28.6704 54.1616 29.3763C53.7101 29.7237 53.5351 29.8673 53.0936 30.041C52.8601 30.1325 52.7731 30.0867 52.5917 29.9121C51.9078 29.2501 51.1192 28.6305 50.2258 28.0532C48.8384 27.1565 47.245 26.646 45.4455 26.5217C44.1063 26.429 42.9617 26.437 42.0116 26.5455C39.4652 26.8371 37.3137 27.9042 35.4717 29.657C33.4871 31.546 32.279 33.8676 31.8473 36.6216C31.2877 40.1931 31.8345 43.7316 33.8725 46.7398C35.2958 48.8404 37.2053 50.3259 39.6008 51.1964C40.8355 51.6456 41.9829 51.9266 43.0429 52.0394C45.0095 52.2488 47.1931 51.8565 49.0177 51.2284C51.1683 50.4878 53.1229 48.8547 53.9143 46.6786C54.3467 45.4908 54.5472 44.7365 54.4758 43.5405C54.474 43.51 54.4614 43.485 54.4382 43.4655C54.3595 43.3991 54.2551 43.3656 54.125 43.365C51.6544 43.3418 49.1841 43.3381 46.7141 43.354C46.562 43.3549 46.4402 43.2936 46.2817 43.2827C46.2469 43.2802 46.2298 43.2613 46.2304 43.226C46.2457 41.8819 46.2515 40.539 46.2478 39.1973C46.2478 39.1931 46.2359 39.1227 46.2121 38.9861C46.2005 38.9191 46.2094 38.8566 46.2387 38.7987C46.2465 38.7835 46.2582 38.7707 46.2725 38.7617C46.2869 38.7526 46.3034 38.7477 46.3202 38.7475C48.7963 38.7286 52.7031 38.7231 58.0407 38.731C58.6018 38.7316 59.0345 38.7429 59.3386 38.7649C59.3715 38.7673 59.3914 38.785 59.3981 38.8179C59.4686 39.1635 59.5273 39.4927 59.5401 39.8493C59.6079 41.7847 59.5416 43.6192 59.3413 45.3528C59.1105 47.346 58.3329 49.2296 57.2273 50.9111C55.9239 52.8916 54.1232 54.3189 51.9423 55.2451C50.0444 56.0504 48.0504 56.5731 45.9602 56.8132C44.615 56.9675 43.2912 56.9644 41.9887 56.8041C40.2209 56.5859 38.4156 56.1516 36.5727 55.5011C33.5143 54.4213 30.8654 52.2954 29.0976 49.5871C28.0003 47.9047 27.2022 46.1537 26.7033 44.3342C26.1599 42.3506 25.9632 40.2351 26.1135 37.9877C26.1153 37.9602 26.1217 37.934 26.1327 37.909C26.1431 37.8846 26.1489 37.8593 26.1501 37.8331C26.2966 34.4372 27.3323 31.3812 29.257 28.6649C30.7637 26.5391 32.5333 24.853 34.8653 23.6351C35.9077 23.0913 36.9919 22.6521 38.1179 22.3175Z" fill="white"/>
</g>
<defs>
<filter id="filter0_d_3_10" x="-3" y="0" width="93" height="87" filterUnits="userSpaceOnUse" color-interpolation-filters="sRGB">
<feFlood flood-opacity="0" result="BackgroundImageFix"/>
<feColorMatrix in="SourceAlpha" type="matrix" values="0 0 0 0 0 0 0 0 0 0 0 0 0 0 0 0 0 0 127 0" result="hardAlpha"/>
<feOffset dy="4"/>
<feGaussianBlur stdDeviation="2"/>
<feComposite in2="hardAlpha" operator="out"/>
<feColorMatrix type="matrix" values="0 0 0 0 0 0 0 0 0 0 0 0 0 0 0 0 0 0 0.25 0"/>
<feBlend mode="normal" in2="BackgroundImageFix" result="effect1_dropShadow_3_10"/>
<feBlend mode="normal" in="SourceGraphic" in2="effect1_dropShadow_3_10" result="shape"/>
</filter>
</defs>
</svg>
