<svg width="44" height="32" viewBox="0 0 44 32" fill="none" xmlns="http://www.w3.org/2000/svg">
<g clip-path="url(#clip0_358_53)">
<path d="M2.7498 6.00006H30.2498V2.00006C30.2498 1.19381 30.9201 0.462561 31.9514 0.150061C32.9826 -0.162439 34.16 0.0125614 34.9506 0.581311L43.2006 6.58131C43.7162 6.95631 44.0084 7.46256 44.0084 7.99381C44.0084 8.52506 43.7162 9.03131 43.2006 9.40631L34.9506 15.4063C34.16 15.9813 32.9826 16.1501 31.9514 15.8376C30.9201 15.5251 30.2498 14.8001 30.2498 13.9876V10.0001H2.7498C1.22871 10.0001 -0.000195312 9.10631 -0.000195312 8.00006C-0.000195312 6.89381 1.22871 6.00006 2.7498 6.00006ZM41.2498 22.0001C42.7709 22.0001 43.9998 22.8938 43.9998 24.0001C43.9998 25.1063 42.7709 26.0001 41.2498 26.0001H13.7498V30.0001C13.7498 30.8063 13.0795 31.5376 12.0482 31.8501C11.017 32.1626 9.83965 31.9876 9.04902 31.4188L0.799024 25.4188C0.283398 25.0438 -0.00878906 24.5376 -0.00878906 24.0063C-0.00878906 23.4751 0.283398 22.9688 0.799024 22.5938L9.04902 16.5938C9.83965 16.0188 11.017 15.8501 12.0482 16.1626C13.0795 16.4751 13.7498 17.2001 13.7498 18.0126V22.0126H41.2498V22.0001Z" fill="#FCDCFF"/>
</g>
<defs>
<clipPath id="clip0_358_53">
<rect width="44" height="32" fill="white"/>
</clipPath>
</defs>
</svg>
