<svg width="20" height="18" viewBox="0 0 20 18" fill="none" xmlns="http://www.w3.org/2000/svg">
<path d="M17.0045 2.79297C15.1339 1.15234 12.6429 0.25 9.99554 0.25C4.53125 0.25 0.0848214 4.14062 0.0848214 8.92188C0.0848214 10.4492 0.540179 11.9414 1.40625 13.2578L0 17.75L5.25446 16.543C6.70089 17.2344 8.33036 17.5977 9.99107 17.5977H9.99554C15.4554 17.5977 20 13.707 20 8.92578C20 6.60938 18.875 4.43359 17.0045 2.79297ZM9.99554 16.1367C8.51339 16.1367 7.0625 15.7891 5.79911 15.1328L5.5 14.9766L2.38393 15.6914L3.21429 13.0312L3.01786 12.7578C2.19196 11.6094 1.75893 10.2852 1.75893 8.92188C1.75893 4.94922 5.45536 1.71484 10 1.71484C12.2009 1.71484 14.2679 2.46484 15.8214 3.82812C17.375 5.19141 18.3304 7 18.3259 8.92578C18.3259 12.9023 14.5357 16.1367 9.99554 16.1367ZM14.5134 10.7383C14.2679 10.6289 13.0491 10.1055 12.8214 10.0352C12.5938 9.96094 12.4286 9.92578 12.2634 10.1445C12.0982 10.3633 11.625 10.8477 11.4777 10.9961C11.3348 11.1406 11.1875 11.1602 10.942 11.0508C9.48661 10.4141 8.53125 9.91406 7.57143 8.47266C7.31696 8.08984 7.82589 8.11719 8.29911 7.28906C8.37946 7.14453 8.33929 7.01953 8.27679 6.91016C8.21429 6.80078 7.71875 5.73438 7.51339 5.30078C7.3125 4.87891 7.10714 4.9375 6.95536 4.92969C6.8125 4.92188 6.64732 4.92188 6.48214 4.92188C6.31696 4.92188 6.04911 4.97656 5.82143 5.19141C5.59375 5.41016 4.95536 5.93359 4.95536 7C4.95536 8.06641 5.84375 9.09766 5.96429 9.24219C6.08929 9.38672 7.70982 11.5742 10.1964 12.5156C11.7679 13.1094 12.3839 13.1602 13.1696 13.0586C13.6473 12.9961 14.6339 12.5352 14.8393 12.0273C15.0446 11.5195 15.0446 11.0859 14.9821 10.9961C14.9241 10.8984 14.7589 10.8438 14.5134 10.7383Z" fill="white"/>
</svg>
