<svg width="22" height="20" viewBox="0 0 22 20" fill="none" xmlns="http://www.w3.org/2000/svg">
<path d="M22 10C22 4.47656 17.0758 0 11 0C4.92422 0 0 4.47656 0 10C0 14.6875 3.55352 18.625 8.34453 19.707V13.0547H6.07578V10H8.34453V8.68359C8.34453 5.28125 10.0375 3.70312 13.7156 3.70312C14.4117 3.70312 15.6148 3.82812 16.109 3.95312V6.71875C15.8512 6.69531 15.4 6.67969 14.8371 6.67969C13.0324 6.67969 12.3363 7.30078 12.3363 8.91406V10H15.9285L15.3098 13.0547H12.332V19.9258C17.7805 19.3281 22 15.1133 22 10Z" fill="white"/>
</svg>
