<svg width="20" height="18" viewBox="0 0 20 18" fill="none" xmlns="http://www.w3.org/2000/svg">
<path d="M10.0049 4.50781C7.1656 4.50781 4.87542 6.51172 4.87542 8.99609C4.87542 11.4805 7.1656 13.4844 10.0049 13.4844C12.8442 13.4844 15.1343 11.4805 15.1343 8.99609C15.1343 6.51172 12.8442 4.50781 10.0049 4.50781ZM10.0049 11.9141C8.17006 11.9141 6.67006 10.6055 6.67006 8.99609C6.67006 7.38672 8.1656 6.07812 10.0049 6.07812C11.8442 6.07812 13.3397 7.38672 13.3397 8.99609C13.3397 10.6055 11.8397 11.9141 10.0049 11.9141ZM16.5406 4.32422C16.5406 4.90625 16.0049 5.37109 15.3442 5.37109C14.679 5.37109 14.1477 4.90234 14.1477 4.32422C14.1477 3.74609 14.6835 3.27734 15.3442 3.27734C16.0049 3.27734 16.5406 3.74609 16.5406 4.32422ZM19.9379 5.38672C19.862 3.98438 19.496 2.74219 18.3218 1.71875C17.1522 0.695312 15.7326 0.375 14.1299 0.304687C12.4781 0.222656 7.5272 0.222656 5.87542 0.304687C4.2772 0.371094 2.85756 0.691406 1.68345 1.71484C0.509347 2.73828 0.14774 3.98047 0.0673828 5.38281C-0.0263672 6.82812 -0.0263672 11.1602 0.0673828 12.6055C0.143276 14.0078 0.509347 15.25 1.68345 16.2734C2.85756 17.2969 4.27274 17.6172 5.87542 17.6875C7.5272 17.7695 12.4781 17.7695 14.1299 17.6875C15.7326 17.6211 17.1522 17.3008 18.3218 16.2734C19.4915 15.25 19.8576 14.0078 19.9379 12.6055C20.0317 11.1602 20.0317 6.83203 19.9379 5.38672ZM17.804 14.1562C17.4558 14.9219 16.7817 15.5117 15.9022 15.8203C14.5852 16.2773 11.4602 16.1719 10.0049 16.1719C8.54953 16.1719 5.42006 16.2734 4.10756 15.8203C3.23256 15.5156 2.55845 14.9258 2.20578 14.1562C1.68345 13.0039 1.80399 10.2695 1.80399 8.99609C1.80399 7.72266 1.68792 4.98438 2.20578 3.83594C2.55399 3.07031 3.2281 2.48047 4.10756 2.17187C5.42453 1.71484 8.54953 1.82031 10.0049 1.82031C11.4602 1.82031 14.5897 1.71875 15.9022 2.17187C16.7772 2.47656 17.4513 3.06641 17.804 3.83594C18.3263 4.98828 18.2058 7.72266 18.2058 8.99609C18.2058 10.2695 18.3263 13.0078 17.804 14.1562Z" fill="white"/>
</svg>
