<svg width="64" height="52" viewBox="0 0 64 52" fill="none" xmlns="http://www.w3.org/2000/svg">
<g clip-path="url(#clip0_358_50)">
<path d="M11.2 0C8.55 0 6.4 2.18359 6.4 4.875V9.75H1.6C0.72 9.75 0 10.4812 0 11.375C0 12.2688 0.72 13 1.6 13H6.4H27.2C28.08 13 28.8 13.7312 28.8 14.625C28.8 15.5188 28.08 16.25 27.2 16.25H6.4H4.8C3.92 16.25 3.2 16.9813 3.2 17.875C3.2 18.7687 3.92 19.5 4.8 19.5H6.4H24C24.88 19.5 25.6 20.2313 25.6 21.125C25.6 22.0187 24.88 22.75 24 22.75H6.4H1.6C0.72 22.75 0 23.4813 0 24.375C0 25.2687 0.72 26 1.6 26H6.4H20.8C21.68 26 22.4 26.7313 22.4 27.625C22.4 28.5187 21.68 29.25 20.8 29.25H6.4V42.25C6.4 47.6328 10.7 52 16 52C21.3 52 25.6 47.6328 25.6 42.25H38.4C38.4 47.6328 42.7 52 48 52C53.3 52 57.6 47.6328 57.6 42.25H60.8C62.57 42.25 64 40.7977 64 39C64 37.2023 62.57 35.75 60.8 35.75V29.25V26V24.1008C60.8 22.3742 60.13 20.7188 58.93 19.5L51.2 11.6492C50 10.4305 48.37 9.75 46.67 9.75H41.6V4.875C41.6 2.18359 39.45 0 36.8 0H11.2ZM54.4 24.1008V26H41.6V16.25H46.67L54.4 24.1008ZM16 37.375C17.273 37.375 18.4939 37.8886 19.3941 38.8029C20.2943 39.7171 20.8 40.9571 20.8 42.25C20.8 43.5429 20.2943 44.7829 19.3941 45.6971C18.4939 46.6114 17.273 47.125 16 47.125C14.727 47.125 13.5061 46.6114 12.6059 45.6971C11.7057 44.7829 11.2 43.5429 11.2 42.25C11.2 40.9571 11.7057 39.7171 12.6059 38.8029C13.5061 37.8886 14.727 37.375 16 37.375ZM43.2 42.25C43.2 40.9571 43.7057 39.7171 44.6059 38.8029C45.5061 37.8886 46.727 37.375 48 37.375C49.273 37.375 50.4939 37.8886 51.3941 38.8029C52.2943 39.7171 52.8 40.9571 52.8 42.25C52.8 43.5429 52.2943 44.7829 51.3941 45.6971C50.4939 46.6114 49.273 47.125 48 47.125C46.727 47.125 45.5061 46.6114 44.6059 45.6971C43.7057 44.7829 43.2 43.5429 43.2 42.25Z" fill="#FCDCFF"/>
</g>
<defs>
<clipPath id="clip0_358_50">
<rect width="64" height="52" fill="white"/>
</clipPath>
</defs>
</svg>
